<?xml version="1.0" encoding="UTF-8"?>
<svg id="Layer_1" xmlns="http://www.w3.org/2000/svg" version="1.1" viewBox="0 0 1041.7 309.74">
  <!-- Generator: Adobe Illustrator 29.0.1, SVG Export Plug-In . SVG Version: 2.1.0 Build 192)  -->
  <defs>
    <style>
      .st0 {
        fill: #fff;
      }

      .st1 {
        fill: #6252d6;
      }
    </style>
  </defs>
  <g>
    <path class="st0" d="M346.97,72.75c-38.89,0-57.87,29.73-57.87,59.31s18.32,58.02,57.87,58.02,57.37-29.1,57.7-58.18c.32-29.41-18.97-59.15-57.7-59.15ZM346.97,170.62c-26.52,0-36.48-19.76-36.96-38.25-.48-18.96,10.44-40.34,36.96-40.34s37.12,21.22,36.8,40.17c-.32,18.49-10.28,38.41-36.8,38.41Z"/>
    <path class="st0" d="M464.13,106.5c-9.01,0-19.62,3.86-25.72,12.69l-1.28-10.93h-18.32v112.34h19.6v-42.42c5.62,8.68,18.01,11.24,26.36,11.24,25.39,0,40.02-18.32,40.02-41.47s-16.23-41.46-40.66-41.46ZM462.68,170.47c-13.35,0-22.51-10.13-22.51-22.51s8.36-22.5,22.51-22.5,22.5,10.13,22.5,22.5-9.16,22.51-22.5,22.51Z"/>
    <path class="st0" d="M566.49,168.37l5.47,16.71c-5.64,2.26-10.29,3.22-16.24,3.38-17.19.65-28.44-9.16-28.44-28.93v-34.22h-14.78v-16.88h14.78v-20.42l19.6-2.08v22.5h21.85v16.88h-22.02v34.22c0,7.56,4.19,11.26,10.29,11.26,3.04,0,6.59-.96,9.48-2.41Z"/>
    <polygon class="st0" points="643.31 108.26 665.01 108.26 616.63 220.6 595.09 220.6 609.89 186.22 578.22 108.26 601.05 108.26 613.1 142.5 620.65 164.83 628.85 142.98 643.31 108.26"/>
    <path class="st0" d="M748.54,145.88c0-8.68-2.25-16.56-8.35-23.46l8.83-11.26-14.47-10.93-7.87,9.96c-5.47-3.69-11.89-4.49-18.16-4.49-22.18,0-40.19,15.42-40.19,40.17s15.43,39.86,40.19,39.86c9.79,0,20.09,4.99,20.09,15.91s-8.85,17.03-20.09,17.03-20.74-6.75-20.74-17.03h-19.45c0,21.37,17.21,35.35,40.19,35.35s39.69-13.5,39.69-35.35c0-10.13-3.21-19.6-16.4-26.21,13.02-5.94,16.71-19.77,16.71-29.57ZM708.53,167.89c-11.42,0-20.74-8.2-20.74-22.02s9.31-22.35,20.74-22.35,20.57,8.68,20.57,22.35-9.33,22.02-20.57,22.02Z"/>
    <path class="st0" d="M823.92,108.26l-.65,10.93c-4.49-7.87-14.62-12.85-25.23-12.85-23.15-.15-41.3,14.15-41.3,41.47s17.36,42.27,40.82,42.1c8.83-.15,21.22-4.66,25.71-13.98l.96,11.57h18.49v-79.23h-18.81ZM799.81,171.92c-13.02,0-23.46-9.01-23.46-24.11s10.44-23.94,23.46-23.94c30.86,0,30.86,48.06,0,48.06Z"/>
    <path class="st0" d="M910.87,168.37l5.47,16.71c-5.62,2.26-10.29,3.22-16.23,3.38-17.19.65-28.45-9.16-28.45-28.93v-34.22h-14.78v-16.88h14.78v-20.42l19.6-2.08v22.5h21.87v16.88h-22.02v34.22c0,7.56,4.17,11.26,10.28,11.26,3.06,0,6.59-.96,9.48-2.41Z"/>
    <path class="st0" d="M1003.45,147.43c0-27.68-15.96-41.58-40.39-41.58-25.71,0-42.1,17.36-42.1,41.47,0,25.39,16.23,42.27,43.55,42.27,12.06,0,25.71-4.17,34.07-12.85l-12.54-12.39c-4.49,4.67-13.98,7.4-21.22,7.4-13.82,0-22.33-7.07-23.61-16.88h61.87c.24-2.59.36-5.06.36-7.44ZM941.53,138.64c2.89-10.29,11.57-15.43,22.18-15.43,11.24,0,19.27,5.14,20.57,15.43h-42.75Z"/>
    <path class="st0" d="M346.97,72.75c-38.89,0-57.87,29.73-57.87,59.31s18.32,58.02,57.87,58.02,57.37-29.1,57.7-58.18c.32-29.41-18.97-59.15-57.7-59.15ZM346.97,170.62c-26.52,0-36.48-19.76-36.96-38.25-.48-18.96,10.44-40.34,36.96-40.34s37.12,21.22,36.8,40.17c-.32,18.49-10.28,38.41-36.8,38.41Z"/>
    <path class="st0" d="M464.13,106.5c-9.01,0-19.62,3.86-25.72,12.69l-1.28-10.93h-18.32v112.34h19.6v-42.42c5.62,8.68,18.01,11.24,26.36,11.24,25.39,0,40.02-18.32,40.02-41.47s-16.23-41.46-40.66-41.46ZM462.68,170.47c-13.35,0-22.51-10.13-22.51-22.51s8.36-22.5,22.51-22.5,22.5,10.13,22.5,22.5-9.16,22.51-22.5,22.51Z"/>
    <path class="st0" d="M566.49,168.37c-2.89,1.45-6.43,2.41-9.48,2.41-6.1,0-10.29-3.69-10.29-11.26v-34.22h22.02v-16.88h-21.85v-22.5l-19.6,2.08v20.42h-14.78v16.88h14.78v34.22c0,19.77,11.24,29.58,28.44,28.93,5.95-.15,10.61-1.12,16.24-3.38l-5.47-16.71Z"/>
    <path class="st0" d="M643.31,108.26l-14.47,34.72-8.2,21.85-7.55-22.33-12.06-34.24h-22.83l31.68,77.95-14.8,34.39h21.53l48.39-112.34h-21.7Z"/>
    <path class="st0" d="M748.54,145.88c0-8.68-2.25-16.56-8.35-23.46l8.83-11.26-14.47-10.93-7.87,9.96c-5.47-3.69-11.89-4.49-18.16-4.49-22.18,0-40.19,15.42-40.19,40.17s15.43,39.86,40.19,39.86c9.79,0,20.09,4.99,20.09,15.91s-8.85,17.03-20.09,17.03-20.74-6.75-20.74-17.03h-19.45c0,21.37,17.21,35.35,40.19,35.35s39.69-13.5,39.69-35.35c0-10.13-3.21-19.6-16.4-26.21,13.02-5.94,16.71-19.77,16.71-29.57ZM708.53,167.89c-11.42,0-20.74-8.2-20.74-22.02s9.31-22.35,20.74-22.35,20.57,8.68,20.57,22.35-9.33,22.02-20.57,22.02Z"/>
    <path class="st0" d="M823.92,108.26l-.65,10.93c-4.49-7.87-14.62-12.85-25.23-12.85-23.15-.15-41.3,14.15-41.3,41.47s17.36,42.27,40.82,42.1c8.83-.15,21.22-4.66,25.71-13.98l.96,11.57h18.49v-79.23h-18.81ZM799.81,171.92c-13.02,0-23.46-9.01-23.46-24.11s10.44-23.94,23.46-23.94c30.86,0,30.86,48.06,0,48.06Z"/>
    <path class="st0" d="M910.87,168.37c-2.89,1.45-6.42,2.41-9.48,2.41-6.1,0-10.28-3.69-10.28-11.26v-34.22h22.02v-16.88h-21.87v-22.5l-19.6,2.08v20.42h-14.78v16.88h14.78v34.22c0,19.77,11.26,29.58,28.45,28.93,5.94-.15,10.61-1.12,16.23-3.38l-5.47-16.71Z"/>
    <path class="st0" d="M1003.45,147.43c0-27.68-15.96-41.58-40.39-41.58-25.71,0-42.1,17.36-42.1,41.47,0,25.39,16.23,42.27,43.55,42.27,12.06,0,25.71-4.17,34.07-12.85l-12.54-12.39c-4.49,4.67-13.98,7.4-21.22,7.4-13.82,0-22.33-7.07-23.61-16.88h61.87c.24-2.59.36-5.06.36-7.44ZM941.53,138.64c2.89-10.29,11.57-15.43,22.18-15.43,11.24,0,19.27,5.14,20.57,15.43h-42.75Z"/>
  </g>
  <g>
    <path class="st1" d="M109.95,202.33v.02c-4.97,13.57-20,20.54-33.56,15.58-13.58-4.97-20.54-20-15.59-33.56l.02-.02c2.59-7.07,2.94-14.42,1.43-21.27-.05-.23-.1-.45-.14-.66-1.21-4.97-3.38-9.65-6.4-13.76-.14-.18-.27-.37-.42-.55-4.24-5.58-10.1-10.03-17.17-12.62-13.57-4.97-20.54-20.01-15.58-33.58,4.97-13.57,20-20.54,33.56-15.58,13.58,4.97,20.56,20,15.59,33.56-.98,2.67-1.64,5.37-1.99,8.05-.59,4.47-.39,8.94.56,13.21.59,2.72,1.48,5.35,2.65,7.86v.02c1.17,2.51,2.6,4.89,4.29,7.11,2.65,3.47,5.93,6.53,9.73,8.94,2.3,1.46,4.79,2.7,7.44,3.68,13.57,4.97,20.54,20,15.58,33.56Z"/>
    <path class="st1" d="M82.75,60.41c3.6-2.6,7.76-3.86,11.88-3.86,6.29,0,12.49,2.91,16.46,8.39,1.29,1.77,2.73,3.36,4.32,4.76,2.6,2.33,5.58,4.13,8.73,5.37,2.01.8,4.08,1.37,6.2,1.7h.02c2.11.34,4.28.43,6.43.32,3.38-.21,6.77-.98,9.97-2.38,1.95-.85,3.81-1.91,5.59-3.2,9.07-6.57,21.77-4.55,28.34,4.53,2.6,3.6,3.86,7.76,3.86,11.9,0,6.29-2.91,12.47-8.39,16.44-9.08,6.59-21.75,4.55-28.34-4.52-1.7-2.38-3.71-4.4-5.92-6.11-2.2-1.69-4.61-3.04-7.14-4.03h-.02c-.16-.08-.32-.13-.48-.19-3.71-1.38-7.67-2.03-11.62-1.85-.18,0-.35.02-.53.03-5.43.31-10.83,2.14-15.56,5.56-9.07,6.57-21.77,4.55-28.34-4.53-6.57-9.07-4.55-21.77,4.53-28.34Z"/>
    <path class="st1" d="M159.59,245.5c-5.11,5.13-11.83,7.7-18.53,7.7s-13.36-2.54-18.47-7.62h-.02c-10.22-10.21-10.27-26.76-.06-37,10.19-10.26,26.75-10.29,37-.1,2.67,2.67,5.64,4.84,8.79,6.54,3.15,1.7,6.49,2.94,9.92,3.68.23.05.45.1.68.14,5,1,10.16.98,15.16-.05.23-.05.45-.1.68-.14,6.85-1.53,13.34-4.95,18.65-10.29,10.21-10.24,26.78-10.29,37.02-.08,10.24,10.19,10.27,26.76.08,37-10.19,10.24-26.76,10.29-37.02.08-1.99-1.99-4.18-3.73-6.48-5.18-3.79-2.43-7.94-4.1-12.22-5.03-2.72-.59-5.48-.88-8.26-.88-2.76.02-5.53.32-8.25.92-4.28.96-8.42,2.65-12.2,5.1-2.3,1.46-4.47,3.2-6.46,5.21Z"/>
    <path class="st1" d="M271.11,175.13v.02c-1.85,11.06-12.3,18.52-23.36,16.67-11.06-1.83-18.52-12.3-16.69-23.36.27-1.66.42-3.3.42-4.92,0-4.03-.84-7.92-2.36-11.49v-.02c-.06-.16-.14-.31-.21-.48-1.62-3.6-3.94-6.86-6.85-9.56-.13-.11-.26-.24-.39-.35-4.03-3.65-9.13-6.21-14.9-7.17-11.04-1.85-18.52-12.3-16.67-23.36,1.83-11.06,12.3-18.53,23.36-16.69,11.06,1.85,18.52,12.3,16.69,23.36-.37,2.17-.48,4.32-.37,6.43.18,3.49.98,6.86,2.31,9.98.84,1.99,1.9,3.87,3.15,5.63,1.25,1.74,2.68,3.36,4.29,4.81,2.52,2.27,5.45,4.12,8.7,5.42,1.96.79,4.03,1.38,6.2,1.74,11.04,1.85,18.52,12.31,16.67,23.36Z"/>
    <path class="st1" d="M109.95,202.33v.02c-4.97,13.57-20,20.54-33.56,15.58-13.58-4.97-20.54-20-15.59-33.56l.02-.02c2.59-7.07,2.94-14.42,1.43-21.27-.05-.23-.1-.45-.14-.66-1.21-4.97-3.38-9.65-6.4-13.76-.14-.18-.27-.37-.42-.55-4.24-5.58-10.1-10.03-17.17-12.62-13.57-4.97-20.54-20.01-15.58-33.58,4.97-13.57,20-20.54,33.56-15.58,13.58,4.97,20.56,20,15.59,33.56-.98,2.67-1.64,5.37-1.99,8.05-.59,4.47-.39,8.94.56,13.21.59,2.72,1.48,5.35,2.65,7.86v.02c1.17,2.51,2.6,4.89,4.29,7.11,2.65,3.47,5.93,6.53,9.73,8.94,2.3,1.46,4.79,2.7,7.44,3.68,13.57,4.97,20.54,20,15.58,33.56Z"/>
    <path class="st1" d="M184.56,87.94c0,6.29-2.91,12.47-8.39,16.44-9.08,6.59-21.75,4.55-28.34-4.52-1.7-2.38-3.71-4.4-5.92-6.11-2.2-1.69-4.61-3.04-7.14-4.03h-.02c-.16-.08-.32-.13-.48-.19-3.71-1.38-7.67-2.03-11.62-1.85-.18,0-.35.02-.53.03-5.43.31-10.83,2.14-15.56,5.56-9.07,6.57-21.77,4.55-28.34-4.53-6.57-9.07-4.55-21.77,4.53-28.34,3.6-2.6,7.76-3.86,11.88-3.86,6.29,0,12.49,2.91,16.46,8.39,1.29,1.77,2.73,3.36,4.32,4.76,2.6,2.33,5.58,4.13,8.73,5.37,2.01.8,4.08,1.37,6.2,1.7h.02c2.11.34,4.28.43,6.43.32,3.38-.21,6.77-.98,9.97-2.38,1.95-.85,3.81-1.91,5.59-3.2,9.07-6.57,21.77-4.55,28.34,4.53,2.6,3.6,3.86,7.76,3.86,11.9Z"/>
    <path class="st1" d="M271.11,175.13v.02c-1.85,11.06-12.3,18.52-23.36,16.67-11.06-1.83-18.52-12.3-16.69-23.36.27-1.66.42-3.3.42-4.92,0-4.03-.84-7.92-2.36-11.49v-.02c-.06-.16-.14-.31-.21-.48-1.62-3.6-3.94-6.86-6.85-9.56-.13-.11-.26-.24-.39-.35-4.03-3.65-9.13-6.21-14.9-7.17-11.04-1.85-18.52-12.3-16.67-23.36,1.83-11.06,12.3-18.53,23.36-16.69,11.06,1.85,18.52,12.3,16.69,23.36-.37,2.17-.48,4.32-.37,6.43.18,3.49.98,6.86,2.31,9.98.84,1.99,1.9,3.87,3.15,5.63,1.25,1.74,2.68,3.36,4.29,4.81,2.52,2.27,5.45,4.12,8.7,5.42,1.96.79,4.03,1.38,6.2,1.74,11.04,1.85,18.52,12.31,16.67,23.36Z"/>
    <path class="st1" d="M250.48,245.29c-10.19,10.24-26.76,10.29-37.02.08-1.99-1.99-4.18-3.73-6.48-5.18-3.79-2.43-7.94-4.1-12.22-5.03-2.72-.59-5.48-.88-8.26-.88-2.76.02-5.53.32-8.25.92-4.28.96-8.42,2.65-12.2,5.1-2.3,1.46-4.47,3.2-6.46,5.21-5.11,5.13-11.83,7.7-18.53,7.7s-13.36-2.54-18.47-7.62h-.02c-10.22-10.21-10.27-26.76-.06-37,10.19-10.26,26.75-10.29,37-.1,2.67,2.67,5.64,4.84,8.79,6.54,3.15,1.7,6.49,2.94,9.92,3.68.23.05.45.1.68.14,5,1,10.16.98,15.16-.05.23-.05.45-.1.68-.14,6.85-1.53,13.34-4.95,18.65-10.29,10.21-10.24,26.78-10.29,37.02-.08,10.24,10.19,10.27,26.76.08,37Z"/>
  </g>
</svg>