<?xml version="1.0" encoding="UTF-8"?>
<svg id="Layer_1" xmlns="http://www.w3.org/2000/svg" version="1.1" viewBox="0 0 1000 785.39">
  <!-- Generator: Adobe Illustrator 29.0.1, SVG Export Plug-In . SVG Version: 2.1.0 Build 192)  -->
  <defs>
    <style>
      .st0 {
        fill: #6252d6;
      }
    </style>
  </defs>
  <path class="st0" d="M140.44,119.14c54.19,19.83,82.05,79.86,62.21,134.05-3.88,10.61-6.51,21.4-7.94,32.15-2.42,17.84-1.56,35.68,2.22,52.74,2.37,10.86,5.94,21.37,10.59,31.4l.02.04c4.67,10,10.42,19.52,17.14,28.36,10.6,13.87,23.67,26.07,38.85,35.74,9.17,5.84,19.08,10.78,29.69,14.67,54.19,19.83,82.05,79.85,62.21,134.05v.03c-19.87,54.18-79.85,82.02-134.05,62.19-54.22-19.84-82.03-79.82-62.22-134.02v-.03c10.35-28.26,11.79-57.58,5.74-84.93v-.03c-.17-.88-.39-1.75-.59-2.64-4.75-19.8-13.43-38.5-25.52-54.89-.55-.73-1.1-1.47-1.65-2.18-16.97-22.3-40.3-40.1-68.53-50.43C14.42,295.56-13.44,235.54,6.39,181.35c19.83-54.19,79.86-82.05,134.05-62.22Z"/>
  <path class="st0" d="M245.47,16.16c35.83-26.82,86.63-19.51,113.45,16.32,5.25,7.02,11.15,13.29,17.54,18.77,10.57,9.12,22.53,16.12,35.21,20.89,8.06,3.05,16.4,5.19,24.89,6.41h.03c8.47,1.21,17.1,1.5,25.69.87,13.5-1.02,26.96-4.34,39.67-10.12,7.68-3.49,15.09-7.83,22.1-13.09,35.83-26.82,86.63-19.51,113.45,16.32v.02c26.82,35.84,19.51,86.61-16.32,113.43-35.85,26.83-86.6,19.52-113.43-16.3v-.02c-14-18.68-32.45-32.03-52.78-39.68v-.02c-.66-.26-1.32-.48-1.99-.73-14.88-5.3-30.7-7.57-46.48-6.65-.71.05-1.42.09-2.11.15-21.67,1.59-43.12,9.21-61.79,23.18-35.83,26.82-86.63,19.51-113.45-16.32-26.82-35.83-19.51-86.63,16.32-113.45Z"/>
  <path class="st0" d="M768.69,151.44c44.15,7.36,73.97,49.12,66.61,93.27-1.44,8.64-1.9,17.24-1.45,25.65.71,13.94,3.92,27.42,9.24,39.89,3.36,7.94,7.59,15.44,12.57,22.42l.02.03c4.99,6.96,10.74,13.39,17.13,19.16,10.06,9.06,21.77,16.48,34.73,21.68,7.83,3.14,16.09,5.49,24.73,6.93,44.15,7.36,73.97,49.12,66.61,93.27v.02c-7.39,44.14-49.12,73.95-93.27,66.59-44.17-7.36-73.96-49.1-66.62-93.25v-.02c3.84-23.02.74-45.58-7.79-65.56v-.02c-.26-.65-.55-1.27-.83-1.93-6.46-14.41-15.75-27.42-27.31-38.19-.52-.48-1.05-.96-1.57-1.42-16.13-14.57-36.46-24.8-59.46-28.63-44.15-7.36-73.97-49.12-66.61-93.27,7.36-44.15,49.12-73.97,93.27-66.61Z"/>
  <path class="st0" d="M916.51,753.81c-40.71,40.89-106.89,41.04-147.78.32-8.01-7.97-16.7-14.88-25.87-20.68-15.19-9.67-31.74-16.37-48.82-20.09-10.85-2.4-21.89-3.56-32.95-3.54h-.04c-11.04.05-22.09,1.28-32.93,3.68-17.04,3.81-33.58,10.57-48.73,20.3-9.15,5.88-17.79,12.81-25.76,20.81-40.71,40.89-106.89,41.04-147.78.32l-.02-.02c-40.87-40.74-41.02-106.86-.3-147.76,40.74-40.92,106.84-41.04,147.76-.34l.02.02c21.33,21.23,47.35,34.82,74.71,40.79l.02.02c.88.21,1.75.37,2.65.56,19.97,3.98,40.58,3.94,60.54-.17.9-.19,1.79-.38,2.67-.59,27.36-6.07,53.3-19.79,74.51-41.09,40.71-40.89,106.89-41.04,147.78-.32,40.89,40.71,41.04,106.89.33,147.78Z"/>
</svg>