<?xml version="1.0" encoding="UTF-8"?>
<svg id="Layer_1" xmlns="http://www.w3.org/2000/svg" version="1.1" viewBox="0 0 1041.7 309.74">
  <!-- Generator: Adobe Illustrator 29.0.1, SVG Export Plug-In . SVG Version: 2.1.0 Build 192)  -->
  <defs>
    <style>
      .st0 {
        fill: #fff;
      }

      .st1 {
        fill: #6252d6;
      }
    </style>
  </defs>
  <g>
    <path class="st0" d="M452.81,107.38c-.3,27.11-16.93,54.23-53.78,54.23s-53.93-26.51-53.93-54.08,17.68-55.27,53.93-55.27,54.08,27.71,53.78,55.12ZM364.58,107.83c.45,17.23,9.74,35.65,34.45,35.65s34-18.57,34.3-35.8c.3-17.68-9.59-37.45-34.3-37.45s-34.9,19.92-34.45,37.6Z"/>
    <path class="st0" d="M465.98,190.07v-104.71h17.08l1.2,10.19c5.69-8.24,15.58-11.83,23.97-11.83,22.77,0,37.9,16.93,37.9,38.65s-13.63,38.65-37.3,38.65c-7.79,0-19.32-2.4-24.57-10.49v39.55h-18.28ZM527.85,122.36c0-11.53-7.79-20.97-20.97-20.97s-20.97,9.44-20.97,20.97,8.54,20.97,20.97,20.97,20.97-9.44,20.97-20.97Z"/>
    <path class="st0" d="M585.37,64.54v20.97h20.37v15.73h-20.52v31.91c0,7.04,3.89,10.49,9.59,10.49,2.85,0,6.14-.9,8.84-2.25l5.09,15.58c-5.24,2.1-9.59,3-15.13,3.14-16.03.6-26.51-8.54-26.51-26.96v-31.91h-13.78v-15.73h13.78v-19.03l18.27-1.95Z"/>
    <path class="st0" d="M695.46,85.36l-45.09,104.71h-20.07l13.78-32.06-29.51-72.65h21.27l11.23,31.91,7.04,20.82,7.64-20.37,13.48-32.36h20.22Z"/>
    <path class="st0" d="M760.29,77.87l13.48,10.19-8.24,10.49c5.69,6.44,7.79,13.78,7.79,21.87,0,9.14-3.45,22.02-15.58,27.56,12.28,6.14,15.28,14.98,15.28,24.42,0,20.37-15.58,32.96-37,32.96s-37.45-13.03-37.45-32.96h18.12c0,9.59,8.84,15.88,19.32,15.88s18.72-5.69,18.72-15.88-9.59-14.83-18.72-14.83c-23.07,0-37.45-14.08-37.45-37.15s16.78-37.45,37.45-37.45c5.84,0,11.83.75,16.93,4.19l7.34-9.29ZM716.7,120.41c0,12.88,8.69,20.52,19.32,20.52s19.17-7.79,19.17-20.52-8.69-20.82-19.17-20.82-19.32,7.94-19.32,20.82Z"/>
    <path class="st0" d="M843.58,85.36h17.53v73.85h-17.23l-.9-10.78c-4.19,8.69-15.73,12.88-23.97,13.03-21.87.15-38.05-13.33-38.05-39.25s16.93-38.8,38.5-38.65c9.89,0,19.32,4.64,23.52,11.98l.6-10.19ZM799.24,122.21c0,14.08,9.74,22.47,21.87,22.47,28.76,0,28.76-44.79,0-44.79-12.13,0-21.87,8.24-21.87,22.32Z"/>
    <path class="st0" d="M906.35,64.54v20.97h20.37v15.73h-20.52v31.91c0,7.04,3.89,10.49,9.59,10.49,2.85,0,6.14-.9,8.84-2.25l5.09,15.58c-5.24,2.1-9.59,3-15.13,3.14-16.03.6-26.51-8.54-26.51-26.96v-31.91h-13.78v-15.73h13.78v-19.03l18.27-1.95Z"/>
    <path class="st0" d="M952.9,128.8c1.2,9.14,9.14,15.73,22.02,15.73,6.74,0,15.58-2.55,19.77-6.89l11.68,11.53c-7.79,8.09-20.52,11.98-31.76,11.98-25.46,0-40.59-15.73-40.59-39.4s15.28-38.65,39.25-38.65,40.14,15.28,37.3,45.69h-57.67ZM993.04,113.67c-1.2-9.59-8.69-14.38-19.17-14.38-9.89,0-17.98,4.79-20.67,14.38h39.85Z"/>
  </g>
  <g>
    <path class="st0" d="M356.89,209.77v1.85h-4.74v15.56h-2.27v-15.56h-4.77v-1.85h11.78Z"/>
    <path class="st0" d="M361.96,211.62v5.82h6.34v1.87h-6.34v5.99h7.09v1.87h-9.36v-17.43h9.36v1.87h-7.09Z"/>
    <path class="st0" d="M372.8,213.88c.77-1.36,1.81-2.42,3.13-3.18,1.32-.77,2.79-1.15,4.41-1.15,1.9,0,3.55.46,4.97,1.37,1.41.92,2.45,2.21,3.1,3.89h-2.72c-.48-1.05-1.18-1.86-2.08-2.42-.91-.57-1.99-.85-3.26-.85s-2.31.28-3.27.85c-.97.57-1.72,1.37-2.27,2.41-.55,1.04-.82,2.26-.82,3.66s.27,2.59.82,3.63c.55,1.04,1.31,1.84,2.27,2.41.97.57,2.06.85,3.27.85s2.35-.28,3.26-.84c.91-.56,1.6-1.36,2.08-2.41h2.72c-.65,1.66-1.68,2.95-3.1,3.86-1.42.91-3.07,1.36-4.97,1.36-1.61,0-3.08-.38-4.41-1.14-1.32-.76-2.37-1.81-3.13-3.16-.77-1.35-1.15-2.87-1.15-4.57s.38-3.23,1.15-4.58Z"/>
    <path class="st0" d="M405.18,209.77v17.4h-2.27v-7.89h-8.86v7.89h-2.27v-17.4h2.27v7.64h8.86v-7.64h2.27Z"/>
    <path class="st0" d="M422.73,227.18h-2.27l-9.14-13.86v13.86h-2.27v-17.43h2.27l9.14,13.83v-13.83h2.27v17.43Z"/>
    <path class="st0" d="M430.07,226.21c-1.33-.76-2.38-1.81-3.16-3.17-.77-1.36-1.16-2.88-1.16-4.58s.39-3.23,1.16-4.58c.77-1.36,1.83-2.41,3.16-3.17,1.33-.76,2.81-1.14,4.42-1.14s3.11.38,4.44,1.14c1.33.76,2.38,1.81,3.15,3.16.77,1.35,1.15,2.88,1.15,4.59s-.38,3.25-1.15,4.59c-.77,1.35-1.81,2.4-3.15,3.16-1.33.76-2.81,1.14-4.44,1.14s-3.09-.38-4.42-1.14ZM437.78,224.53c.97-.57,1.74-1.37,2.3-2.42.56-1.05.84-2.26.84-3.65s-.28-2.62-.84-3.66c-.56-1.04-1.32-1.84-2.29-2.41-.97-.57-2.06-.85-3.3-.85s-2.33.28-3.3.85c-.97.57-1.73,1.37-2.29,2.41-.56,1.04-.84,2.26-.84,3.66s.28,2.6.84,3.65c.56,1.05,1.32,1.86,2.3,2.42.97.57,2.07.85,3.28.85s2.31-.28,3.28-.85Z"/>
    <path class="st0" d="M448.5,225.33h6.09v1.85h-8.36v-17.4h2.27v15.56Z"/>
    <path class="st0" d="M460.48,226.21c-1.33-.76-2.38-1.81-3.16-3.17-.77-1.36-1.16-2.88-1.16-4.58s.39-3.23,1.16-4.58c.77-1.36,1.83-2.41,3.16-3.17,1.33-.76,2.81-1.14,4.42-1.14s3.11.38,4.44,1.14c1.33.76,2.38,1.81,3.15,3.16.77,1.35,1.15,2.88,1.15,4.59s-.38,3.25-1.15,4.59c-.77,1.35-1.81,2.4-3.15,3.16-1.33.76-2.81,1.14-4.44,1.14s-3.09-.38-4.42-1.14ZM468.19,224.53c.97-.57,1.74-1.37,2.3-2.42.56-1.05.84-2.26.84-3.65s-.28-2.62-.84-3.66c-.56-1.04-1.32-1.84-2.29-2.41-.97-.57-2.06-.85-3.29-.85s-2.33.28-3.3.85c-.97.57-1.73,1.37-2.29,2.41-.56,1.04-.84,2.26-.84,3.66s.28,2.6.84,3.65c.56,1.05,1.32,1.86,2.3,2.42.97.57,2.07.85,3.28.85s2.31-.28,3.28-.85Z"/>
    <path class="st0" d="M489.82,214.82c-.48-1.02-1.18-1.8-2.1-2.36-.92-.56-1.98-.84-3.2-.84s-2.31.28-3.28.84c-.97.56-1.74,1.36-2.3,2.4-.56,1.04-.84,2.24-.84,3.61s.28,2.56.84,3.6c.56,1.03,1.32,1.83,2.3,2.38.97.56,2.07.84,3.28.84,1.7,0,3.1-.51,4.19-1.52s1.74-2.39,1.92-4.12h-6.94v-1.85h9.36v1.75c-.13,1.43-.58,2.74-1.35,3.93-.77,1.19-1.77,2.13-3.02,2.82-1.25.69-2.64,1.04-4.17,1.04-1.61,0-3.09-.38-4.42-1.14-1.33-.76-2.38-1.81-3.16-3.16-.77-1.35-1.16-2.87-1.16-4.57s.39-3.23,1.16-4.58c.77-1.36,1.83-2.41,3.16-3.17,1.33-.76,2.81-1.14,4.42-1.14,1.85,0,3.48.46,4.91,1.37,1.42.92,2.46,2.21,3.11,3.87h-2.72Z"/>
    <path class="st0" d="M508.25,209.77l-5.67,10.84v6.57h-2.27v-6.57l-5.69-10.84h2.52l4.29,8.81,4.29-8.81h2.52Z"/>
    <path class="st0" d="M519.75,226.74c-.91-.41-1.62-.97-2.13-1.7-.52-.72-.78-1.56-.8-2.51h2.42c.08.82.42,1.5,1.01,2.06.59.56,1.45.84,2.58.84s1.94-.27,2.56-.81c.63-.54.94-1.24.94-2.08,0-.67-.18-1.21-.55-1.62-.37-.42-.82-.73-1.37-.95-.55-.22-1.29-.45-2.22-.7-1.15-.3-2.07-.6-2.76-.9-.69-.3-1.28-.77-1.77-1.41-.49-.64-.74-1.5-.74-2.58,0-.95.24-1.79.72-2.52.48-.73,1.16-1.3,2.03-1.7.87-.4,1.88-.6,3.01-.6,1.63,0,2.97.41,4.01,1.22,1.04.82,1.63,1.9,1.76,3.25h-2.5c-.08-.67-.43-1.25-1.05-1.76-.62-.51-1.43-.76-2.45-.76-.95,0-1.72.24-2.32.74-.6.49-.9,1.18-.9,2.06,0,.63.18,1.15.54,1.55.36.4.8.7,1.32.91.52.21,1.26.45,2.21.71,1.15.32,2.07.63,2.77.94.7.31,1.3.78,1.8,1.42.5.64.75,1.51.75,2.61,0,.85-.22,1.65-.67,2.4-.45.75-1.12,1.36-2,1.82-.88.47-1.92.7-3.12.7s-2.18-.2-3.08-.61Z"/>
    <path class="st0" d="M535.44,226.21c-1.33-.76-2.38-1.81-3.16-3.17-.77-1.36-1.16-2.88-1.16-4.58s.39-3.23,1.16-4.58c.77-1.36,1.83-2.41,3.16-3.17,1.33-.76,2.81-1.14,4.42-1.14s3.11.38,4.44,1.14c1.33.76,2.38,1.81,3.15,3.16.77,1.35,1.15,2.88,1.15,4.59s-.38,3.25-1.15,4.59c-.77,1.35-1.81,2.4-3.15,3.16-1.33.76-2.81,1.14-4.44,1.14s-3.09-.38-4.42-1.14ZM543.14,224.53c.97-.57,1.74-1.37,2.3-2.42.56-1.05.84-2.26.84-3.65s-.28-2.62-.84-3.66c-.56-1.04-1.32-1.84-2.29-2.41-.97-.57-2.06-.85-3.3-.85s-2.33.28-3.3.85c-.97.57-1.73,1.37-2.29,2.41-.56,1.04-.84,2.26-.84,3.66s.28,2.6.84,3.65c.56,1.05,1.32,1.86,2.3,2.42.97.57,2.07.85,3.28.85s2.31-.28,3.28-.85Z"/>
    <path class="st0" d="M553.86,225.33h6.09v1.85h-8.36v-17.4h2.27v15.56Z"/>
    <path class="st0" d="M564.6,209.77v11.01c0,1.55.38,2.7,1.14,3.45.76.75,1.81,1.12,3.16,1.12s2.38-.37,3.13-1.12c.76-.75,1.14-1.9,1.14-3.45v-11.01h2.27v10.99c0,1.45-.29,2.67-.87,3.66-.58.99-1.37,1.73-2.36,2.21-.99.48-2.1.72-3.33.72s-2.34-.24-3.33-.72c-.99-.48-1.77-1.22-2.35-2.21-.57-.99-.86-2.21-.86-3.66v-10.99h2.27Z"/>
    <path class="st0" d="M589.94,209.77v1.85h-4.74v15.56h-2.27v-15.56h-4.77v-1.85h11.78Z"/>
    <path class="st0" d="M595.01,209.77v17.4h-2.27v-17.4h2.27Z"/>
    <path class="st0" d="M602.35,226.21c-1.33-.76-2.38-1.81-3.16-3.17-.77-1.36-1.16-2.88-1.16-4.58s.39-3.23,1.16-4.58c.77-1.36,1.83-2.41,3.16-3.17,1.33-.76,2.81-1.14,4.42-1.14s3.11.38,4.44,1.14c1.33.76,2.38,1.81,3.15,3.16.77,1.35,1.15,2.88,1.15,4.59s-.38,3.25-1.15,4.59c-.77,1.35-1.81,2.4-3.15,3.16-1.33.76-2.81,1.14-4.44,1.14s-3.09-.38-4.42-1.14ZM610.06,224.53c.97-.57,1.74-1.37,2.3-2.42.56-1.05.84-2.26.84-3.65s-.28-2.62-.84-3.66c-.56-1.04-1.32-1.84-2.29-2.41-.97-.57-2.06-.85-3.29-.85s-2.33.28-3.3.85c-.97.57-1.73,1.37-2.29,2.41-.56,1.04-.84,2.26-.84,3.66s.28,2.6.84,3.65c.56,1.05,1.32,1.86,2.3,2.42.97.57,2.07.85,3.28.85s2.31-.28,3.28-.85Z"/>
    <path class="st0" d="M632.19,227.18h-2.27l-9.14-13.86v13.86h-2.27v-17.43h2.27l9.14,13.83v-13.83h2.27v17.43Z"/>
    <path class="st0" d="M638.49,226.74c-.91-.41-1.62-.97-2.13-1.7-.52-.72-.78-1.56-.8-2.51h2.42c.08.82.42,1.5,1.01,2.06.59.56,1.45.84,2.58.84s1.94-.27,2.56-.81c.63-.54.94-1.24.94-2.08,0-.67-.18-1.21-.55-1.62-.37-.42-.82-.73-1.37-.95-.55-.22-1.29-.45-2.22-.7-1.15-.3-2.07-.6-2.76-.9-.69-.3-1.28-.77-1.77-1.41-.49-.64-.74-1.5-.74-2.58,0-.95.24-1.79.72-2.52.48-.73,1.16-1.3,2.03-1.7.87-.4,1.88-.6,3.01-.6,1.63,0,2.97.41,4.01,1.22,1.04.82,1.63,1.9,1.76,3.25h-2.5c-.08-.67-.43-1.25-1.05-1.76-.62-.51-1.43-.76-2.45-.76-.95,0-1.72.24-2.32.74-.6.49-.9,1.18-.9,2.06,0,.63.18,1.15.54,1.55.36.4.8.7,1.32.91.52.21,1.26.45,2.21.71,1.15.32,2.07.63,2.77.94.7.31,1.3.78,1.8,1.42.5.64.75,1.51.75,2.61,0,.85-.22,1.65-.67,2.4-.45.75-1.12,1.36-2,1.82-.88.47-1.92.7-3.12.7s-2.18-.2-3.08-.61Z"/>
    <path class="st0" d="M359.54,257.14l-2.27-2.3c-.85.88-1.76,1.54-2.72,1.96-.97.42-2.06.64-3.27.64s-2.26-.22-3.18-.65c-.92-.43-1.64-1.05-2.15-1.85-.51-.8-.76-1.73-.76-2.8,0-1.21.34-2.28,1.04-3.21.69-.92,1.71-1.65,3.06-2.18-.53-.63-.92-1.21-1.15-1.75-.23-.53-.35-1.11-.35-1.75,0-.73.19-1.39.56-1.99s.91-1.05,1.61-1.39c.7-.33,1.51-.5,2.42-.5s1.68.18,2.35.52c.67.35,1.16.84,1.5,1.46.33.62.48,1.32.45,2.08h-2.27c.02-.68-.17-1.22-.57-1.61-.4-.39-.92-.59-1.55-.59-.66,0-1.2.19-1.61.56-.41.37-.61.85-.61,1.44,0,.5.14.98.41,1.45.27.47.74,1.04,1.39,1.72l5.19,5.22.45-.7,1.7-2.85h2.45l-2.05,3.55c-.28.5-.62,1.02-1,1.57l3.92,3.92h-2.97ZM353.71,254.96c.72-.35,1.41-.89,2.06-1.62l-5.12-5.14c-2.13.82-3.2,2.11-3.2,3.87,0,.98.35,1.8,1.06,2.45.71.65,1.63.97,2.76.97.9,0,1.71-.18,2.44-.52Z"/>
    <path class="st0" d="M373.57,239.73v17.4h-2.27v-17.4h2.27Z"/>
    <path class="st0" d="M388.15,239.73v1.85h-4.74v15.56h-2.27v-15.56h-4.77v-1.85h11.78Z"/>
    <path class="st0" d="M400.05,256.7c-.91-.41-1.62-.97-2.13-1.7-.52-.72-.78-1.56-.8-2.51h2.42c.08.82.42,1.5,1.01,2.06.59.56,1.45.84,2.58.84s1.94-.27,2.56-.81c.63-.54.94-1.24.94-2.08,0-.67-.18-1.21-.55-1.62-.37-.42-.82-.73-1.37-.95-.55-.22-1.29-.45-2.22-.7-1.15-.3-2.07-.6-2.76-.9-.69-.3-1.28-.77-1.77-1.41-.49-.64-.74-1.5-.74-2.58,0-.95.24-1.79.72-2.52.48-.73,1.16-1.3,2.03-1.7.87-.4,1.88-.6,3.01-.6,1.63,0,2.97.41,4.01,1.22,1.04.82,1.63,1.9,1.76,3.25h-2.5c-.08-.67-.43-1.25-1.05-1.76-.62-.51-1.43-.76-2.45-.76-.95,0-1.72.25-2.32.74-.6.49-.9,1.18-.9,2.06,0,.63.18,1.15.54,1.55.36.4.8.7,1.32.91.52.21,1.26.45,2.21.71,1.15.32,2.07.63,2.77.94.7.31,1.3.78,1.8,1.42.5.64.75,1.51.75,2.61,0,.85-.23,1.65-.67,2.4-.45.75-1.12,1.36-2,1.82-.88.47-1.92.7-3.12.7s-2.18-.2-3.08-.61Z"/>
    <path class="st0" d="M414.54,241.58v5.82h6.34v1.87h-6.34v5.99h7.09v1.87h-9.36v-17.43h9.36v1.87h-7.09Z"/>
    <path class="st0" d="M434.24,257.14l-4.14-7.12h-2.75v7.12h-2.27v-17.4h5.62c1.32,0,2.43.22,3.33.67.91.45,1.58,1.06,2.03,1.82.45.77.67,1.64.67,2.62,0,1.2-.35,2.26-1.04,3.17-.69.92-1.73,1.52-3.11,1.82l4.37,7.29h-2.72ZM427.35,248.2h3.34c1.23,0,2.16-.3,2.77-.91.62-.61.92-1.42.92-2.43s-.3-1.83-.91-2.4c-.61-.57-1.53-.85-2.78-.85h-3.34v6.59Z"/>
    <path class="st0" d="M454.64,239.73l-6.57,17.4h-2.62l-6.57-17.4h2.42l5.47,15.01,5.47-15.01h2.4Z"/>
    <path class="st0" d="M459.41,239.73v17.4h-2.27v-17.4h2.27Z"/>
    <path class="st0" d="M463.58,243.84c.77-1.36,1.81-2.42,3.13-3.18,1.32-.76,2.79-1.15,4.41-1.15,1.9,0,3.55.46,4.97,1.37,1.41.92,2.45,2.21,3.1,3.89h-2.72c-.48-1.05-1.18-1.86-2.08-2.42-.91-.57-1.99-.85-3.26-.85s-2.31.28-3.27.85c-.97.57-1.72,1.37-2.27,2.41-.55,1.04-.82,2.26-.82,3.66s.27,2.59.82,3.63c.55,1.04,1.31,1.84,2.27,2.41.97.57,2.06.85,3.27.85s2.35-.28,3.26-.84c.91-.56,1.6-1.36,2.08-2.41h2.72c-.65,1.66-1.68,2.95-3.1,3.86-1.42.91-3.07,1.36-4.97,1.36-1.61,0-3.08-.38-4.41-1.14-1.32-.76-2.37-1.81-3.13-3.16-.77-1.35-1.15-2.87-1.15-4.57s.38-3.22,1.15-4.58Z"/>
    <path class="st0" d="M484.83,241.58v5.82h6.34v1.87h-6.34v5.99h7.09v1.87h-9.36v-17.43h9.36v1.87h-7.09Z"/>
    <path class="st0" d="M497.8,256.7c-.91-.41-1.62-.97-2.13-1.7-.52-.72-.78-1.56-.8-2.51h2.42c.08.82.42,1.5,1.01,2.06.59.56,1.45.84,2.58.84s1.94-.27,2.56-.81c.63-.54.94-1.24.94-2.08,0-.67-.18-1.21-.55-1.62-.37-.42-.82-.73-1.37-.95-.55-.22-1.29-.45-2.22-.7-1.15-.3-2.07-.6-2.76-.9-.69-.3-1.28-.77-1.77-1.41-.49-.64-.74-1.5-.74-2.58,0-.95.24-1.79.72-2.52.48-.73,1.16-1.3,2.03-1.7.87-.4,1.88-.6,3.01-.6,1.63,0,2.97.41,4.01,1.22,1.04.82,1.63,1.9,1.76,3.25h-2.5c-.08-.67-.43-1.25-1.05-1.76-.62-.51-1.43-.76-2.45-.76-.95,0-1.72.25-2.32.74-.6.49-.9,1.18-.9,2.06,0,.63.18,1.15.54,1.55.36.4.8.7,1.32.91.52.21,1.26.45,2.21.71,1.15.32,2.07.63,2.77.94.7.31,1.3.78,1.8,1.42.5.64.75,1.51.75,2.61,0,.85-.23,1.65-.67,2.4-.45.75-1.12,1.36-2,1.82-.88.47-1.92.7-3.12.7s-2.18-.2-3.08-.61Z"/>
  </g>
  <g>
    <path class="st1" d="M72.19,74.21c15.97,5.85,24.18,23.54,18.34,39.51-1.14,3.13-1.92,6.31-2.34,9.48-.71,5.26-.46,10.52.65,15.55.7,3.2,1.75,6.3,3.12,9.25h0c1.38,2.96,3.07,5.77,5.05,8.37,3.12,4.09,6.98,7.68,11.45,10.53,2.7,1.72,5.62,3.18,8.75,4.32,15.97,5.85,24.18,23.54,18.34,39.51h0c-5.85,15.98-23.54,24.18-39.51,18.34-15.98-5.85-24.18-23.53-18.34-39.5h0c3.05-8.34,3.47-16.98,1.69-25.04h0c-.05-.27-.12-.52-.18-.79-1.4-5.84-3.96-11.35-7.52-16.18-.16-.22-.32-.43-.49-.64-5-6.57-11.88-11.82-20.2-14.87-15.97-5.85-24.18-23.54-18.34-39.51,5.85-15.97,23.54-24.18,39.51-18.34Z"/>
    <path class="st1" d="M103.54,43.69c10.68-7.74,25.62-5.35,33.36,5.33,1.52,2.09,3.22,3.97,5.08,5.61,3.07,2.74,6.57,4.85,10.28,6.32,2.36.94,4.81,1.6,7.31,2h0c2.49.39,5.03.52,7.57.37,3.98-.24,7.97-1.16,11.74-2.8,2.28-.99,4.48-2.24,6.57-3.76,10.68-7.74,25.62-5.35,33.36,5.33h0c7.74,10.69,5.35,25.62-5.33,33.36-10.69,7.74-25.61,5.36-33.36-5.32h0c-4.04-5.58-9.41-9.59-15.37-11.94h0c-.19-.08-.38-.15-.58-.23-4.36-1.63-9.01-2.37-13.67-2.17-.21.01-.42.02-.62.04-6.4.37-12.75,2.52-18.32,6.55-10.68,7.74-25.62,5.35-33.36-5.33-7.74-10.68-5.35-25.62,5.33-33.36Z"/>
    <path class="st1" d="M257.38,83.73c13.01,2.17,21.8,14.48,19.63,27.49-.42,2.55-.56,5.08-.43,7.56.21,4.11,1.15,8.08,2.72,11.76.99,2.34,2.24,4.55,3.71,6.61h0c1.47,2.06,3.16,3.95,5.05,5.66,2.97,2.67,6.42,4.86,10.24,6.39,2.31.92,4.74,1.62,7.29,2.04,13.01,2.17,21.8,14.48,19.64,27.49h0c-2.18,13.02-14.48,21.8-27.49,19.64-13.02-2.17-21.8-14.47-19.64-27.49h0c1.13-6.79.22-13.44-2.3-19.33h0c-.08-.2-.16-.38-.25-.57-1.9-4.25-4.64-8.08-8.05-11.26-.15-.14-.31-.28-.46-.42-4.75-4.29-10.75-7.31-17.53-8.44-13.01-2.17-21.8-14.48-19.64-27.49,2.17-13.01,14.48-21.8,27.49-19.64Z"/>
    <path class="st1" d="M300.95,261.29c-12,12.05-31.51,12.1-43.56.1-2.36-2.35-4.92-4.39-7.63-6.1-4.48-2.85-9.36-4.83-14.39-5.92-3.2-.71-6.45-1.05-9.71-1.04h-.01c-3.25.01-6.51.38-9.71,1.09-5.02,1.12-9.9,3.11-14.36,5.98-2.7,1.73-5.24,3.77-7.59,6.14-12,12.05-31.51,12.1-43.56.1h0c-12.05-12.01-12.09-31.51-.09-43.56,12.01-12.06,31.49-12.1,43.55-.1h0c6.29,6.26,13.96,10.27,22.02,12.03h0c.26.07.52.12.78.17,5.89,1.17,11.96,1.16,17.84-.05.26-.06.53-.11.79-.17,8.06-1.79,15.71-5.83,21.96-12.11,12-12.05,31.51-12.1,43.56-.1,12.05,12,12.1,31.51.1,43.56Z"/>
  </g>
</svg>